<svg width="120" height="120" viewBox="0 0 120 120" fill="none" xmlns="http://www.w3.org/2000/svg">
<path d="M34.2501 0H85.6253C104.634 0 119.875 15.2413 119.875 34.2501V85.6253C119.875 104.634 104.634 119.875 85.6253 119.875H34.2501C15.2413 119.875 0 104.634 0 85.6253V34.2501C0 15.2413 15.2413 0 34.2501 0Z" fill="url(#paint0_linear_1_3)"/>
<path d="M44.4903 34.2672C41.155 34.2672 39.196 38.3051 39.196 43.2909C39.196 48.2768 41.155 52.3146 44.4903 52.3146C47.7743 52.3118 49.7846 48.2768 49.7846 43.2909C49.7846 38.3108 47.7685 34.2672 44.4903 34.2672ZM75.2737 34.2672C71.9384 34.2672 69.9794 38.3051 69.9794 43.2909C69.9794 48.2768 71.9384 52.3146 75.2737 52.3146C78.5576 52.3118 80.568 48.2768 80.568 43.2909C80.568 38.3108 78.5519 34.2672 75.2737 34.2672ZM30.2123 63.9084C29.1557 63.9084 28.2933 64.7593 28.2933 65.8045C28.2933 65.8765 28.2976 65.9473 28.3056 66.0175L28.2933 66.0187C28.3065 66.3956 28.3836 66.7611 28.5029 67.0581C33.7344 79.9654 44.8941 91.5592 59.9146 91.6163C74.935 91.6146 86.129 79.9654 91.3262 67.0581C91.4461 66.7646 91.5232 66.3956 91.5358 66.0187L91.5235 66.0175C91.5321 65.9473 91.5358 65.8765 91.5358 65.8045C91.5358 64.7593 90.6791 63.9084 89.6168 63.9084C88.7544 63.9084 88.0234 64.4715 87.7835 65.2448L87.7778 65.2425C83.2717 75.9796 72.3004 83.9753 59.9071 83.9753C47.5138 83.9741 36.5483 75.9796 32.0365 65.2425L32.0309 65.2448C31.7898 64.4681 31.06 63.9084 30.1976 63.9084H30.2123Z" fill="black"/>
<defs>
<linearGradient id="paint0_linear_1_3" x1="0" y1="0" x2="120" y2="117" gradientUnits="userSpaceOnUse">
<stop stop-color="#FFE033"/>
<stop offset="1" stop-color="#FFCC00"/>
</linearGradient>
</defs>
</svg>
