<?xml version="1.0" encoding="UTF-8" standalone="no"?>
<svg
   inkscape:version="1.3 (0e150ed6c4, 2023-07-21)"
   sodipodi:docname="Quake.svg"
   xml:space="preserve"
   enable-background="new 0 0 1151.492 1735.227"
   viewBox="0 0 1151.492 1735.227"
   height="1735.227px"
   width="1151.492px"
   y="0px"
   x="0px"
   id="Layer_1"
   version="1.1"
   xmlns:inkscape="http://www.inkscape.org/namespaces/inkscape"
   xmlns:sodipodi="http://sodipodi.sourceforge.net/DTD/sodipodi-0.dtd"
   xmlns="http://www.w3.org/2000/svg"
   xmlns:svg="http://www.w3.org/2000/svg"
   xmlns:rdf="http://www.w3.org/1999/02/22-rdf-syntax-ns#"
   xmlns:cc="http://creativecommons.org/ns#"
   xmlns:dc="http://purl.org/dc/elements/1.1/"><metadata
   id="metadata20"><rdf:RDF><cc:Work
       rdf:about=""><dc:format>image/svg+xml</dc:format><dc:type
         rdf:resource="http://purl.org/dc/dcmitype/StillImage" /></cc:Work></rdf:RDF></metadata><defs
   id="defs18">&#10;		&#10;	&#10;			&#10;			&#10;		&#10;				&#10;			&#10;	&#10;	&#10;</defs><sodipodi:namedview
   inkscape:current-layer="Layer_1"
   inkscape:window-maximized="1"
   inkscape:window-y="-8"
   inkscape:window-x="-8"
   inkscape:cy="846.36585"
   inkscape:cx="836.92244"
   inkscape:zoom="0.42357569"
   showgrid="false"
   id="namedview16"
   inkscape:window-height="1017"
   inkscape:window-width="1920"
   inkscape:pageshadow="2"
   inkscape:pageopacity="0"
   guidetolerance="10"
   gridtolerance="10"
   objecttolerance="10"
   borderopacity="1"
   bordercolor="#666666"
   pagecolor="#ffffff"
   inkscape:showpageshadow="2"
   inkscape:pagecheckerboard="0"
   inkscape:deskcolor="#d1d1d1" />&#10;<path
   style="fill:#000000;fill-opacity:1"
   id="path2"
   d="M 519.419,1109.182 C 240.757,1079.931 23,842.176 23,555.919 23,332.117 155.76,139.315 346.831,52 l -0.016,17.282 C 196.695,151.297 94.873,310.61 94.873,493.728 c 0,209.292 185.223,445.354 424.546,479.224 0,-48.748 0,-165.24 0,-197.812 C 508.079,735.929 441,734.831 441,734.831 v -12.267 h 272.582 v 12.267 c 0,0 -67.035,1.098 -78.422,40.309 0,32.571 0.106,149.107 0.106,197.812 234.892,-28.938 426.32,-232.122 426.32,-479.224 0,-184.416 -102.805,-342.778 -254.093,-424.445 V 52 c 190.614,87.5 322.999,280.636 322.999,504.106 0,301.902 -216.692,525.661 -495.242,553.075 v 0.166 l -0.003,175.701 -60.881,303.657 -54.947,-303.657 z" />&#10;&#10;<path
   style="fill:#ffffff;stroke-width:2.36085"
   d="m 573.92035,1579.5984 c -0.12817,-1.1953 -11.91926,-66.5687 -26.20242,-145.2741 l -25.96938,-143.1009 v -91.2944 -91.2945 l -7.67278,-1.1705 C 435.65078,1095.4998 388.98479,1081.1778 328.12818,1050.3959 273.08364,1022.5539 227.06516,988.36 181.65763,941.56154 95.970172,853.24925 45.210534,747.6537 28.085617,622.0848 24.156924,593.27756 24.145185,518.81471 28.064776,489.87703 50.29413,325.76142 136.00545,186.56561 269.91695,97.107313 293.46967,81.373131 338.99757,55.480049 343.1103,55.480049 c 0.86584,0 1.57426,3.095717 1.57426,6.879371 0,6.01039 -1.9317,7.959636 -15.29247,15.431404 C 291.29441,99.096265 233.76452,148.86332 202.35298,187.68783 132.56151,273.94976 94.434126,380.85642 94.434126,490.28517 c 0,70.81528 15.678204,133.09836 51.106924,203.02686 53.44386,105.48641 145.53385,195.71822 248.24829,243.2391 35.14285,16.25886 104.36326,37.08954 123.82771,37.2638 3.86904,0.0346 4.1315,-6.19193 4.1315,-98.01424 0,-108.47344 0.10578,-107.62497 -15.08177,-120.95983 -12.84314,-11.2764 -23.78782,-15.27261 -56.33404,-20.56916 -6.71951,-1.09353 -8.8532,-2.55294 -8.8532,-6.05547 0,-4.52557 2.62286,-4.61474 135.74905,-4.61474 133.1262,0 135.74906,0.0892 135.74906,4.61474 0,3.50253 -2.13369,4.96194 -8.8532,6.05547 -33.95816,5.52633 -49.46018,12.03307 -61.59471,25.85353 l -7.46024,8.49676 v 102.61498 c 0,56.52428 0.92151,102.61495 2.0516,102.61495 1.12839,0 11.48664,-1.62589 23.01832,-3.61309 C 785.99301,948.55111 903.18798,872.83548 977.94371,764.91642 1075.4764,624.11606 1089.5241,438.05004 1014.305,283.30238 973.42373,199.19762 905.06873,124.37869 828.42667,79.846631 811.99122,70.296977 809.77263,68.203436 809.77263,62.24397 c 0,-3.720157 0.56148,-6.763921 1.24776,-6.763921 6.48375,0 65.47769,34.899836 90.82551,53.730871 124.7368,92.6676 202.8635,225.48532 223.0019,379.10964 6.8117,51.96274 3.7657,130.9345 -7.1171,184.52259 -18.4728,90.96185 -59.4648,176.15581 -118.94798,247.21067 -79.81608,95.34318 -204.92668,164.78398 -330.66128,183.52858 -9.73852,1.4518 -21.15915,3.1825 -25.37917,3.8459 l -7.67277,1.2062 -0.11505,86.6544 -0.11507,86.6544 -30.34298,149.9141 c -16.68863,82.4528 -30.44785,148.9362 -30.57605,147.741 z"
   id="path1" /></svg>
