<svg width="120" height="120" viewBox="0 0 120 120" fill="none" xmlns="http://www.w3.org/2000/svg">
<path d="M34.2501 0H85.6253C104.634 0 119.875 15.2413 119.875 34.2501V85.6253C119.875 104.634 104.634 119.875 85.6253 119.875H34.2501C15.2413 119.875 0 104.634 0 85.6253V34.2501C0 15.2413 15.2413 0 34.2501 0Z" fill="url(#paint0_linear_1_3)"/>
<path d="M40.8147 28.3909C38.0547 29.6209 36.1647 33.6109 36.1647 38.2909C36.1947 46.6309 41.5647 51.4609 45.8247 46.9609C50.1447 42.4309 49.0947 30.8209 44.1447 28.4509C42.9147 27.8809 42.0147 27.8509 40.8147 28.3909Z" fill="black"/>
<path d="M76.1847 28.5409C71.9547 31.1209 70.5747 39.1909 73.3947 45.0109C75.6747 49.6909 80.0247 49.9309 82.4247 45.4609C85.4547 39.9109 84.1647 30.9709 79.9947 28.6309C78.5847 27.8209 77.4147 27.7909 76.1847 28.5409Z" fill="black"/>
<path d="M23.6247 68.1709C22.4247 69.3109 22.8747 70.7809 25.6647 74.9209C31.6347 83.7109 41.0847 89.9509 52.0647 92.3209C55.4847 93.0409 62.6847 93.2209 66.3147 92.6509C78.9747 90.7009 89.4147 83.5609 96.1047 72.1909C96.7947 71.0509 97.3647 69.8809 97.3647 69.6109C97.3647 69.3709 97.0647 68.8009 96.7347 68.3509C95.8347 67.2109 94.4547 67.3609 93.6147 68.6809C93.2847 69.1909 92.3847 70.6009 91.6047 71.8309C83.1447 85.1509 68.1147 91.4209 52.2747 88.2409C41.6547 86.1109 32.7147 79.4809 27.0147 69.5209C26.5647 68.6809 26.0247 67.9309 25.8447 67.8109C25.2447 67.3909 24.2847 67.5709 23.6247 68.1709Z" fill="black"/>
<defs>
<linearGradient id="paint0_linear_1_3" x1="0" y1="0" x2="120" y2="117" gradientUnits="userSpaceOnUse">
<stop stop-color="#FFE033"/>
<stop offset="1" stop-color="#FFCC00"/>
</linearGradient>
</defs>
</svg>
